<svg xmlns="http://www.w3.org/2000/svg" version="1.1" xmlns:xlink="http://www.w3.org/1999/xlink" xmlns:svgjs="http://svgjs.dev/svgjs" width="128" height="128" viewBox="0 0 128 128"><g transform="matrix(0.8046875,0,0,0.8046875,12.760752631578946,24.328150217059743)"><svg viewBox="0 0 95 74" data-background-color="#ffffff" preserveAspectRatio="xMidYMid meet" height="99" width="128" xmlns="http://www.w3.org/2000/svg" xmlns:xlink="http://www.w3.org/1999/xlink"><g id="tight-bounds" transform="matrix(1,0,0,1,-0.24049999999999727,-0.14879266999999174)"><svg viewBox="0 0 95.481 74.29758533999998" height="74.29758533999998" width="95.481"><g><svg viewBox="0 0 95.481 74.29758533999998" height="74.29758533999998" width="95.481"><g><svg viewBox="0 0 95.481 74.29758533999998" height="74.29758533999998" width="95.481"><g id="textblocktransform"><svg viewBox="0 0 95.481 74.29758533999998" height="74.29758533999998" width="95.481" id="textblock"><g><svg viewBox="0 0 95.481 74.29758533999998" height="74.29758533999998" width="95.481"><g><svg viewBox="0 0 95.481 74.29758533999998" height="74.29758533999998" width="95.481"><g><svg xmlns="http://www.w3.org/2000/svg" xmlns:xlink="http://www.w3.org/1999/xlink" version="1.1" x="0" y="0" viewBox="0 11.093 100 77.814" enable-background="new 0 0 100 100" xml:space="preserve" height="74.29758533999998" width="95.481" class="icon-icon-0" data-fill-palette-color="accent" id="icon-0"><polygon points="49.69,56.896 49.615,56.86 49.615,88.874 49.69,88.907 " fill="#636365" data-fill-palette-color="accent"></polygon><polygon points="0,34.121 0,66.77 49.615,88.874 49.615,56.86 " fill="#636365" data-fill-palette-color="accent"></polygon><polygon points="100,34.121 50.384,56.86 50.384,88.874 100,66.77 " fill="#636365" data-fill-palette-color="accent"></polygon><polygon points="100,33.23 50.309,11.093 50.309,43.104 64.424,49.574 100,33.267 " fill="#636365" data-fill-palette-color="accent"></polygon><polygon points="49.69,11.093 0,33.23 0,33.267 35.577,49.574 49.69,43.104 " fill="#636365" data-fill-palette-color="accent"></polygon></svg></g></svg></g></svg></g></svg></g></svg></g></svg></g><defs></defs></svg><rect width="95.481" height="74.29758533999998" fill="none" stroke="none" visibility="hidden"></rect></g></svg></g></svg>